<?xml version="1.0" encoding="utf-8"?>
<!-- Generator: Adobe Illustrator 19.1.0, SVG Export Plug-In . SVG Version: 6.00 Build 0)  -->
<svg version="1.1" id="Calque_1" xmlns="http://www.w3.org/2000/svg" xmlns:xlink="http://www.w3.org/1999/xlink" x="0px" y="0px"
	 viewBox="-545 370.9 100 100" style="enable-background:new -545 370.9 100 100;" xml:space="preserve">
<style type="text/css">
	.st0{clip-path:url(#SVGID_2_);}
	.st1{clip-path:url(#SVGID_4_);}
	.st2{fill:#D69718;}
	.st3{fill:#BF8715;}
	.st4{clip-path:url(#SVGID_6_);fill:#262626;stroke:url(#SVGID_7_);stroke-width:4;stroke-linecap:square;stroke-miterlimit:10;}
	.st5{clip-path:url(#SVGID_9_);}
	.st6{fill:#171717;}
	.st7{fill:#803D2B;}
	.st8{fill:url(#SVGID_10_);}
	.st9{fill:url(#SVGID_11_);}
	.st10{fill:url(#SVGID_12_);}
</style>
<g id="Adapter">
	<g>
		<g>
			<g>
				<defs>
					<rect id="SVGID_1_" x="-545" y="370.9" width="100" height="100"/>
				</defs>
				<clipPath id="SVGID_2_">
					<use xlink:href="#SVGID_1_"  style="overflow:visible;"/>
				</clipPath>
				<polyline class="st0" points="-545,370.9 -545,470.9 -459.5,470.9 -459.5,462.6 -518,462.6 -518,379.2 -459.5,379.2 
					-459.5,370.9 -545,370.9 				"/>
			</g>
		</g>
		<g>
			<g>
				<defs>
					<rect id="SVGID_3_" x="-545" y="370.9" width="100" height="100"/>
				</defs>
				<clipPath id="SVGID_4_">
					<use xlink:href="#SVGID_3_"  style="overflow:visible;"/>
				</clipPath>
				<g class="st1">
					<polygon class="st2" points="-529.5,449.9 -531,448.4 -531,393.4 -529.5,391.9 -513.8,391.9 -512.3,393.4 -512.3,448.4 
						-513.8,449.9 					"/>
					<path class="st3" d="M-513.8,393.4v55h-15.7v-55H-513.8 M-513.8,390.4h-15.7l-3,3v55l3,3h15.8l3-3v-55L-513.8,390.4
						L-513.8,390.4z"/>
				</g>
			</g>
		</g>
		<g>
			<g>
				<defs>
					<rect id="SVGID_5_" x="-545" y="370.9" width="100" height="100"/>
				</defs>
				<clipPath id="SVGID_6_">
					<use xlink:href="#SVGID_5_"  style="overflow:visible;"/>
				</clipPath>
				
					<linearGradient id="SVGID_7_" gradientUnits="userSpaceOnUse" x1="-615.4" y1="421.11" x2="-459.9" y2="421.11" gradientTransform="matrix(1 0 0 1 0 -0.22)">
					<stop  offset="0" style="stop-color:#4085B7"/>
					<stop  offset="1" style="stop-color:#4085B7;stop-opacity:0"/>
				</linearGradient>
				<polyline class="st4" points="-613.4,379 -613.4,462.8 -461.9,462.8 -461.9,452.2 -537.6,452.2 -537.6,389.6 -461.9,389.6 
					-461.9,379 -613.4,379 				"/>
			</g>
		</g>
		<g>
			<g>
				<defs>
					<rect id="SVGID_8_" x="-545" y="370.9" width="100" height="100"/>
				</defs>
				<clipPath id="SVGID_9_">
					<use xlink:href="#SVGID_8_"  style="overflow:visible;"/>
				</clipPath>
				<g class="st5">
					<polygon class="st6" points="-518.5,457.6 -520.6,455.5 -520.6,386.2 -518.5,384.2 -449.2,384.2 -447.1,386.2 -447.1,455.5 
						-449.2,457.6 					"/>
					<path class="st7" d="M-449.2,386.2v69.3h-69.3v-69.3H-449.2 M-449.2,382.1h-69.3l-4.2,4.2v69.3l4.2,4.2h69.3l4.2-4.2v-69.4
						L-449.2,382.1L-449.2,382.1z"/>
				</g>
			</g>
		</g>
	</g>
</g>
<g id="Mongo">
	<g>
		<g>
			<g>
				
					<linearGradient id="SVGID_10_" gradientUnits="userSpaceOnUse" x1="-1568.2107" y1="832.8894" x2="-1585.9349" y2="833.0106" gradientTransform="matrix(-0.9771 -0.323 -0.2901 0.8773 -1784.9303 -814.8002)">
					<stop  offset="0.2308" style="stop-color:#999875"/>
					<stop  offset="0.5632" style="stop-color:#9B9977"/>
					<stop  offset="0.6829" style="stop-color:#A09F7E"/>
					<stop  offset="0.7683" style="stop-color:#A9A889"/>
					<stop  offset="0.8373" style="stop-color:#B7B69A"/>
					<stop  offset="0.8964" style="stop-color:#C9C7B0"/>
					<stop  offset="0.9482" style="stop-color:#DEDDCB"/>
					<stop  offset="0.9944" style="stop-color:#F8F6EB"/>
					<stop  offset="1" style="stop-color:#FBF9EF"/>
				</linearGradient>
				<path class="st8" d="M-484.4,449.9l-1.5-0.5c0,0,0.2-7.6-2.6-8.2c-1.8-2.1,0.3-89.5,6.9-0.3c0,0-2.2,1.1-2.6,3
					C-484.7,445.9-484.4,449.9-484.4,449.9z"/>
				
					<linearGradient id="SVGID_11_" gradientUnits="userSpaceOnUse" x1="-1565.4775" y1="801.9141" x2="-1590.9507" y2="846.0352" gradientTransform="matrix(-0.9771 -0.323 -0.2901 0.8773 -1784.9303 -814.8002)">
					<stop  offset="0" style="stop-color:#48A547"/>
					<stop  offset="1" style="stop-color:#3F9143"/>
				</linearGradient>
				<path class="st9" d="M-483.6,442.5c0,0,13-8.6,10-26.5c-3-13-9.9-17.2-10.6-18.9c-0.8-1.1-1.7-3.2-1.7-3.2l0.6,36.2
					C-485.3,430.2-486.4,441.3-483.6,442.5z"/>
				
					<linearGradient id="SVGID_12_" gradientUnits="userSpaceOnUse" x1="-1563.1637" y1="833.6225" x2="-1581.2183" y2="821.495" gradientTransform="matrix(-0.9771 -0.323 -0.2901 0.8773 -1784.9303 -814.8002)">
					<stop  offset="0" style="stop-color:#41A247"/>
					<stop  offset="0.3523" style="stop-color:#4BA74B"/>
					<stop  offset="0.9557" style="stop-color:#67B554"/>
					<stop  offset="1" style="stop-color:#69B655"/>
				</linearGradient>
				<path class="st10" d="M-486.6,443c0,0-12.2-8.3-11.5-23.1c0.6-14.7,9.3-21.9,11-23.3c1.1-1.2,1.1-1.6,1.2-2.7
					c0.8,1.7,0.6,24.5,0.7,27.1C-484.8,431.4-485.8,441.1-486.6,443z"/>
			</g>
		</g>
	</g>
</g>
</svg>
